<svg xmlns="http://www.w3.org/2000/svg" viewBox="53.755001068115234 0 82.2449951171875 14.61833667755127">
  <g xmlns="http://www.w3.org/2000/svg" clip-path="url(#a)">
    <path d="M56.36 8.7c0 2.69 1.23 4.35 3.1 4.35s3-1.65 3-4.34c0-2.89-1.16-4.37-3-4.37s-3.1 1.47-3.1 4.36zm8.75 0a5.68 5.68 0 11-11.35 0 5.68 5.68 0 1111.35 0zM121.09 6c0-.84.79-1.39 2-1.39 1.37 0 2.13.62 2.22 1.59h2.31c0-2-1.73-3.41-4.53-3.41-2.46 0-4.18 1.21-4.18 3.32 0 4.25 6.71 2.38 6.71 5.15 0 .93-.88 1.52-2.22 1.52-1.5 0-2.38-.64-2.55-1.64h-2.32c.14 2.08 2 3.46 4.87 3.46 2.52 0 4.42-1.2 4.42-3.45-.03-4.24-6.73-2.4-6.73-5.15zm-54.56 8.39V3h2.14v3.54c.63-2.45 2-3.75 4.24-3.75a3.43 3.43 0 013.6 3.79v7.81h-2.34V7.45c0-1.51-.8-2.71-2.36-2.71a3 3 0 00-2.93 3.13v6.52zM116.85 3v11.39h-2.23v-3.53c-.52 2.45-1.85 3.75-4 3.75-2 0-3.5-1.26-3.5-3.79V3h2.33v7c0 1.51.72 2.7 2.25 2.7a3 3 0 002.86-3.12V3zm-33.24 9.93c-2 0-3-1.54-3-4.1v-.2h8.29C88.82 5 87 2.79 83.52 2.79c-3.24 0-5.53 2.38-5.53 6 0 3.29 1.92 5.82 5.6 5.82 3.49 0 5.13-2.27 5.23-4.31h-2.39c-.17 1.63-.84 2.63-2.82 2.63zm-.07-8.47a2.76 2.76 0 012.77 2.93h-5.6C81 5.46 82 4.46 83.54 4.46zM105.58 3v2.35c-.78 0-1.09-.07-1.36-.07-1.65 0-2.71.72-3.06 2.78a7.85 7.85 0 00-.09 1.19v5.14h-2.33V3h2.12v3.58a14.9 14.9 0 01.79-2A2.59 2.59 0 01104 3zm27.49 8.85c0 .75.27 1 1 1h1.91v1.49h-2.72a2.26 2.26 0 01-2.48-2.49V4.63h-2.27V3.31h1.14a1.5 1.5 0 001-.28 1.72 1.72 0 00.32-1c0-.27.06-.61.08-1s0-.94 0-1h2V3H136v1.64h-2.92zm-39.18 0c0 .75.26 1 1 1h1.91v1.49h-2.71a2.27 2.27 0 01-2.48-2.49V4.63h-2.27V3.31h1.15a1.49 1.49 0 00.94-.31 1.72 1.72 0 00.32-1c0-.27.07-.61.09-1s0-.94 0-1h2v3h2.93v1.64h-2.88z" fill="#689d65"/>
  </g>
</svg>
